<svg xmlns="http://www.w3.org/2000/svg" width="1920" height="1080"><path d="M225,-157L732,-144L981,-158Z" fill="#cbdceb" stroke="#cbdceb" stroke-width="1.51"/><path d="M924,1216L311,1240L1147,1234Z" fill="#795c8f" stroke="#795c8f" stroke-width="1.51"/><path d="M981,-158L1251,-135L1361,-137Z" fill="#c0b4d8" stroke="#c0b4d8" stroke-width="1.51"/><path d="M225,-157L981,-158L1721,-161Z" fill="#c0c6e0" stroke="#c0c6e0" stroke-width="1.51"/><path d="M981,-158L1361,-137L1721,-161Z" fill="#c0a9d3" stroke="#c0a9d3" stroke-width="1.51"/><path d="M1365,1219L1147,1234L1876,1231Z" fill="#6f2b79" stroke="#6f2b79" stroke-width="1.51"/><path d="M1618,1186L1365,1219L1876,1231Z" fill="#6f1f74" stroke="#6f1f74" stroke-width="1.51"/><path d="M1987,281L2020,360L2042,232Z" fill="#896b9b" stroke="#896b9b" stroke-width="1.51"/><path d="M1856,-160L1982,-107L2062,-120Z" fill="#ae84ad" stroke="#ae84ad" stroke-width="1.51"/><path d="M1977,891L2037,973L2067,839Z" fill="#72257a" stroke="#72257a" stroke-width="1.51"/><path d="M2037,973L2066,1062L2067,839Z" fill="#6e1d73" stroke="#6e1d73" stroke-width="1.51"/><path d="M1876,1231L1147,1234L2068,1236Z" fill="#6c176d" stroke="#6c176d" stroke-width="1.51"/><path d="M2066,1062L1917,1164L2068,1236Z" fill="#640560" stroke="#640560" stroke-width="1.51"/><path d="M1964,-8L2059,115L2089,-32Z" fill="#9e7aa2" stroke="#9e7aa2" stroke-width="1.51"/><path d="M1923,672L2023,779L2096,659Z" fill="#774086" stroke="#774086" stroke-width="1.51"/><path d="M1947,574L1923,672L2096,659Z" fill="#7a4a8c" stroke="#7a4a8c" stroke-width="1.51"/><path d="M2025,518L1947,574L2096,659Z" fill="#784f8c" stroke="#784f8c" stroke-width="1.51"/><path d="M2023,779L2067,839L2096,659Z" fill="#71377f" stroke="#71377f" stroke-width="1.51"/><path d="M2066,1062L2068,1236L2096,659Z" fill="#6c196e" stroke="#6c196e" stroke-width="1.51"/><path d="M2067,839L2066,1062L2096,659Z" fill="#6f2a78" stroke="#6f2a78" stroke-width="1.51"/><path d="M2042,232L2020,360L2097,420Z" fill="#826696" stroke="#826696" stroke-width="1.51"/><path d="M2025,518L2096,659L2097,420Z" fill="#74538a" stroke="#74538a" stroke-width="1.51"/><path d="M2020,360L2025,518L2097,420Z" fill="#7d5e92" stroke="#7d5e92" stroke-width="1.51"/><path d="M2059,115L2042,232L2097,420Z" fill="#876a97" stroke="#876a97" stroke-width="1.51"/><path d="M2089,-32L2059,115L2097,420Z" fill="#8d6f98" stroke="#8d6f98" stroke-width="1.51"/><path d="M2062,-120L1982,-107L2089,-32Z" fill="#a47ea5" stroke="#a47ea5" stroke-width="1.51"/><path d="M1973,172L2042,232L2059,115Z" fill="#92719e" stroke="#92719e" stroke-width="1.51"/><path d="M1964,-8L1961,105L2059,115Z" fill="#9e79a5" stroke="#9e79a5" stroke-width="1.51"/><path d="M1982,-107L1964,-8L2089,-32Z" fill="#a57ea7" stroke="#a57ea7" stroke-width="1.51"/><path d="M1923,672L1942,757L2023,779Z" fill="#7b3e89" stroke="#7b3e89" stroke-width="1.51"/><path d="M2020,360L1912,406L2025,518Z" fill="#836198" stroke="#836198" stroke-width="1.51"/><path d="M2037,973L1928,1001L2066,1062Z" fill="#711672" stroke="#711672" stroke-width="1.51"/><path d="M1907,1056L1917,1164L2066,1062Z" fill="#72096d" stroke="#72096d" stroke-width="1.51"/><path d="M1917,1164L1876,1231L2068,1236Z" fill="#61045e" stroke="#61045e" stroke-width="1.51"/><path d="M2023,779L1977,891L2067,839Z" fill="#742e7e" stroke="#742e7e" stroke-width="1.51"/><path d="M1928,1001L1907,1056L2066,1062Z" fill="#751273" stroke="#751273" stroke-width="1.51"/><path d="M1961,105L1973,172L2059,115Z" fill="#9975a2" stroke="#9975a2" stroke-width="1.51"/><path d="M1973,172L1987,281L2042,232Z" fill="#906f9e" stroke="#906f9e" stroke-width="1.51"/><path d="M1942,757L1977,891L2023,779Z" fill="#783483" stroke="#783483" stroke-width="1.51"/><path d="M1977,891L1928,1001L2037,973Z" fill="#762079" stroke="#762079" stroke-width="1.51"/><path d="M1912,406L1947,574L2025,518Z" fill="#815b97" stroke="#815b97" stroke-width="1.51"/><path d="M1987,281L1912,406L2020,360Z" fill="#896a9d" stroke="#896a9d" stroke-width="1.51"/><path d="M1912,406L1814,459L1947,574Z" fill="#89609e" stroke="#89609e" stroke-width="1.51"/><path d="M1852,11L1961,105L1964,-8Z" fill="#a87eac" stroke="#a87eac" stroke-width="1.51"/><path d="M1942,757L1843,866L1977,891Z" fill="#7d3287" stroke="#7d3287" stroke-width="1.51"/><path d="M1852,11L1964,-8L1982,-107Z" fill="#ac81ad" stroke="#ac81ad" stroke-width="1.51"/><path d="M1856,-160L1852,11L1982,-107Z" fill="#b385b2" stroke="#b385b2" stroke-width="1.51"/><path d="M1874,280L1912,406L1987,281Z" fill="#906da2" stroke="#906da2" stroke-width="1.51"/><path d="M1973,172L1864,219L1987,281Z" fill="#9672a4" stroke="#9672a4" stroke-width="1.51"/><path d="M1864,219L1874,280L1987,281Z" fill="#9771a6" stroke="#9771a6" stroke-width="1.51"/><path d="M1843,866L1928,1001L1977,891Z" fill="#7c2682" stroke="#7c2682" stroke-width="1.51"/><path d="M1361,-137L1638,-129L1721,-161Z" fill="#bf9aca" stroke="#bf9aca" stroke-width="1.51"/><path d="M1814,459L1833,575L1947,574Z" fill="#885b9d" stroke="#885b9d" stroke-width="1.51"/><path d="M1961,105L1844,136L1973,172Z" fill="#9f78a9" stroke="#9f78a9" stroke-width="1.51"/><path d="M1844,136L1864,219L1973,172Z" fill="#9f77aa" stroke="#9f77aa" stroke-width="1.51"/><path d="M1689,1170L1618,1186L1876,1231Z" fill="#711571" stroke="#711571" stroke-width="1.51"/><path d="M1852,11L1844,136L1961,105Z" fill="#a87daf" stroke="#a87daf" stroke-width="1.51"/><path d="M1833,575L1833,664L1923,672Z" fill="#864e98" stroke="#864e98" stroke-width="1.51"/><path d="M1843,866L1825,1013L1928,1001Z" fill="#802383" stroke="#802383" stroke-width="1.51"/><path d="M1923,672L1846,738L1942,757Z" fill="#81418f" stroke="#81418f" stroke-width="1.51"/><path d="M1846,738L1843,866L1942,757Z" fill="#833b8e" stroke="#833b8e" stroke-width="1.51"/><path d="M1833,575L1923,672L1947,574Z" fill="#835196" stroke="#835196" stroke-width="1.51"/><path d="M1907,1056L1800,1111L1917,1164Z" fill="#770c72" stroke="#770c72" stroke-width="1.51"/><path d="M1833,664L1846,738L1923,672Z" fill="#854794" stroke="#854794" stroke-width="1.51"/><path d="M1825,1013L1907,1056L1928,1001Z" fill="#7d187b" stroke="#7d187b" stroke-width="1.51"/><path d="M1874,280L1769,317L1912,406Z" fill="#966fa9" stroke="#966fa9" stroke-width="1.51"/><path d="M1769,317L1814,459L1912,406Z" fill="#946ca8" stroke="#946ca8" stroke-width="1.51"/><path d="M1800,1111L1876,1231L1917,1164Z" fill="#70086b" stroke="#70086b" stroke-width="1.51"/><path d="M1499,1179L1365,1219L1618,1186Z" fill="#742a7d" stroke="#742a7d" stroke-width="1.51"/><path d="M1361,-137L1518,-108L1638,-129Z" fill="#bf9dcc" stroke="#bf9dcc" stroke-width="1.51"/><path d="M1825,1013L1800,1111L1907,1056Z" fill="#80127c" stroke="#80127c" stroke-width="1.51"/><path d="M1759,985L1825,1013L1843,866Z" fill="#842688" stroke="#842688" stroke-width="1.51"/><path d="M1770,785L1843,866L1846,738Z" fill="#873c92" stroke="#873c92" stroke-width="1.51"/><path d="M1755,16L1844,136L1852,11Z" fill="#b082b5" stroke="#b082b5" stroke-width="1.51"/><path d="M1755,16L1852,11L1856,-160Z" fill="#b787b8" stroke="#b787b8" stroke-width="1.51"/><path d="M1721,-161L1755,16L1856,-160Z" fill="#bb8cbc" stroke="#bb8cbc" stroke-width="1.51"/><path d="M1864,219L1769,317L1874,280Z" fill="#9d74ac" stroke="#9d74ac" stroke-width="1.51"/><path d="M1800,1111L1689,1170L1876,1231Z" fill="#730f71" stroke="#730f71" stroke-width="1.51"/><path d="M1704,243L1769,317L1864,219Z" fill="#9f78b0" stroke="#9f78b0" stroke-width="1.51"/><path d="M1844,136L1723,130L1864,219Z" fill="#a77cb2" stroke="#a77cb2" stroke-width="1.51"/><path d="M1723,130L1704,243L1864,219Z" fill="#a47db3" stroke="#a47db3" stroke-width="1.51"/><path d="M1755,16L1723,130L1844,136Z" fill="#ad82b7" stroke="#ad82b7" stroke-width="1.51"/><path d="M1814,459L1716,507L1833,575Z" fill="#8d62a4" stroke="#8d62a4" stroke-width="1.51"/><path d="M1752,652L1833,664L1833,575Z" fill="#8b529c" stroke="#8b529c" stroke-width="1.51"/><path d="M1769,317L1692,416L1814,459Z" fill="#946fac" stroke="#946fac" stroke-width="1.51"/><path d="M1696,828L1759,985L1843,866Z" fill="#863290" stroke="#863290" stroke-width="1.51"/><path d="M1833,664L1752,652L1846,738Z" fill="#894a99" stroke="#894a99" stroke-width="1.51"/><path d="M1752,652L1770,785L1846,738Z" fill="#894798" stroke="#894798" stroke-width="1.51"/><path d="M1770,785L1696,828L1843,866Z" fill="#873b93" stroke="#873b93" stroke-width="1.51"/><path d="M1759,985L1699,1068L1800,1111Z" fill="#831c82" stroke="#831c82" stroke-width="1.51"/><path d="M1759,985L1800,1111L1825,1013Z" fill="#831b81" stroke="#831b81" stroke-width="1.51"/><path d="M1716,507L1752,652L1833,575Z" fill="#8c5ba2" stroke="#8c5ba2" stroke-width="1.51"/><path d="M1692,416L1716,507L1814,459Z" fill="#906aaa" stroke="#906aaa" stroke-width="1.51"/><path d="M1721,-161L1638,-129L1755,16Z" fill="#bb90c1" stroke="#bb90c1" stroke-width="1.51"/><path d="M1699,1068L1689,1170L1800,1111Z" fill="#7d1a7c" stroke="#7d1a7c" stroke-width="1.51"/><path d="M1716,507L1655,549L1752,652Z" fill="#8b60a6" stroke="#8b60a6" stroke-width="1.51"/><path d="M1638,-129L1620,23L1755,16Z" fill="#b790c1" stroke="#b790c1" stroke-width="1.51"/><path d="M1696,828L1627,901L1759,985Z" fill="#873593" stroke="#873593" stroke-width="1.51"/><path d="M1618,289L1692,416L1769,317Z" fill="#9979b3" stroke="#9979b3" stroke-width="1.51"/><path d="M1752,652L1650,784L1770,785Z" fill="#89489b" stroke="#89489b" stroke-width="1.51"/><path d="M1650,784L1696,828L1770,785Z" fill="#884399" stroke="#884399" stroke-width="1.51"/><path d="M1704,243L1618,289L1769,317Z" fill="#9e7bb4" stroke="#9e7bb4" stroke-width="1.51"/><path d="M1599,625L1650,784L1752,652Z" fill="#8a53a1" stroke="#8a53a1" stroke-width="1.51"/><path d="M1620,23L1723,130L1755,16Z" fill="#b18abc" stroke="#b18abc" stroke-width="1.51"/><path d="M1596,947L1658,1052L1759,985Z" fill="#852c8c" stroke="#852c8c" stroke-width="1.51"/><path d="M1627,901L1596,947L1759,985Z" fill="#873491" stroke="#873491" stroke-width="1.51"/><path d="M1658,1052L1699,1068L1759,985Z" fill="#842486" stroke="#842486" stroke-width="1.51"/><path d="M1655,549L1599,625L1752,652Z" fill="#8b5da6" stroke="#8b5da6" stroke-width="1.51"/><path d="M1620,23L1609,99L1723,130Z" fill="#af8abf" stroke="#af8abf" stroke-width="1.51"/><path d="M1618,289L1661,424L1692,416Z" fill="#9678b3" stroke="#9678b3" stroke-width="1.51"/><path d="M1692,416L1661,424L1716,507Z" fill="#916ead" stroke="#916ead" stroke-width="1.51"/><path d="M1578,179L1704,243L1723,130Z" fill="#a683ba" stroke="#a683ba" stroke-width="1.51"/><path d="M1609,99L1578,179L1723,130Z" fill="#aa87be" stroke="#aa87be" stroke-width="1.51"/><path d="M1658,1052L1689,1170L1699,1068Z" fill="#801f81" stroke="#801f81" stroke-width="1.51"/><path d="M1661,424L1655,549L1716,507Z" fill="#8f6aac" stroke="#8f6aac" stroke-width="1.51"/><path d="M1658,1052L1618,1186L1689,1170Z" fill="#7b207d" stroke="#7b207d" stroke-width="1.51"/><path d="M1578,179L1618,289L1704,243Z" fill="#a182ba" stroke="#a182ba" stroke-width="1.51"/><path d="M1650,784L1627,901L1696,828Z" fill="#884199" stroke="#884199" stroke-width="1.51"/><path d="M1517,676L1510,724L1599,625Z" fill="#8b5ca9" stroke="#8b5ca9" stroke-width="1.51"/><path d="M1518,-108L1501,-52L1620,23Z" fill="#b997c9" stroke="#b997c9" stroke-width="1.51"/><path d="M1518,-108L1620,23L1638,-129Z" fill="#bb96c7" stroke="#bb96c7" stroke-width="1.51"/><path d="M1599,625L1510,724L1650,784Z" fill="#8a55a4" stroke="#8a55a4" stroke-width="1.51"/><path d="M1524,833L1627,901L1650,784Z" fill="#89449c" stroke="#89449c" stroke-width="1.51"/><path d="M1520,1128L1618,1186L1658,1052Z" fill="#7d2582" stroke="#7d2582" stroke-width="1.51"/><path d="M1618,289L1503,356L1661,424Z" fill="#977db8" stroke="#977db8" stroke-width="1.51"/><path d="M1487,462L1655,549L1661,424Z" fill="#9070b1" stroke="#9070b1" stroke-width="1.51"/><path d="M1503,356L1487,462L1661,424Z" fill="#947ab8" stroke="#947ab8" stroke-width="1.51"/><path d="M1487,462L1472,548L1655,549Z" fill="#8e6fb2" stroke="#8e6fb2" stroke-width="1.51"/><path d="M1596,947L1520,1128L1658,1052Z" fill="#852d8c" stroke="#852d8c" stroke-width="1.51"/><path d="M1472,548L1599,625L1655,549Z" fill="#8c67ad" stroke="#8c67ad" stroke-width="1.51"/><path d="M1510,724L1524,833L1650,784Z" fill="#8a4ea2" stroke="#8a4ea2" stroke-width="1.51"/><path d="M1483,948L1520,1128L1596,947Z" fill="#863592" stroke="#863592" stroke-width="1.51"/><path d="M1524,833L1596,947L1627,901Z" fill="#883f9a" stroke="#883f9a" stroke-width="1.51"/><path d="M1578,179L1486,173L1618,289Z" fill="#a488bf" stroke="#a488bf" stroke-width="1.51"/><path d="M1486,173L1503,356L1618,289Z" fill="#9e85be" stroke="#9e85be" stroke-width="1.51"/><path d="M1470,95L1609,99L1620,23Z" fill="#b090c4" stroke="#b090c4" stroke-width="1.51"/><path d="M1501,-52L1470,95L1620,23Z" fill="#b595c8" stroke="#b595c8" stroke-width="1.51"/><path d="M1520,1128L1499,1179L1618,1186Z" fill="#78277f" stroke="#78277f" stroke-width="1.51"/><path d="M1524,833L1483,948L1596,947Z" fill="#88409c" stroke="#88409c" stroke-width="1.51"/><path d="M1470,95L1578,179L1609,99Z" fill="#ac8dc3" stroke="#ac8dc3" stroke-width="1.51"/><path d="M1470,95L1486,173L1578,179Z" fill="#aa8fc4" stroke="#aa8fc4" stroke-width="1.51"/><path d="M1472,548L1517,676L1599,625Z" fill="#8c64ad" stroke="#8c64ad" stroke-width="1.51"/><path d="M712,1178L311,1240L924,1216Z" fill="#826697" stroke="#826697" stroke-width="1.51"/><path d="M1396,3L1470,95L1501,-52Z" fill="#b69bcb" stroke="#b69bcb" stroke-width="1.51"/><path d="M1486,173L1416,326L1503,356Z" fill="#9d89c0" stroke="#9d89c0" stroke-width="1.51"/><path d="M1472,548L1402,690L1517,676Z" fill="#8c66ae" stroke="#8c66ae" stroke-width="1.51"/><path d="M1483,948L1400,1087L1520,1128Z" fill="#863591" stroke="#863591" stroke-width="1.51"/><path d="M1362,876L1483,948L1524,833Z" fill="#8949a0" stroke="#8949a0" stroke-width="1.51"/><path d="M1510,724L1394,737L1524,833Z" fill="#8a56a6" stroke="#8a56a6" stroke-width="1.51"/><path d="M1394,737L1362,876L1524,833Z" fill="#8a54a6" stroke="#8a54a6" stroke-width="1.51"/><path d="M1380,175L1416,326L1486,173Z" fill="#a390c4" stroke="#a390c4" stroke-width="1.51"/><path d="M1407,443L1487,462L1503,356Z" fill="#937eba" stroke="#937eba" stroke-width="1.51"/><path d="M1400,1087L1499,1179L1520,1128Z" fill="#7d2f86" stroke="#7d2f86" stroke-width="1.51"/><path d="M1402,690L1510,724L1517,676Z" fill="#8b5eaa" stroke="#8b5eaa" stroke-width="1.51"/><path d="M1361,-137L1501,-52L1518,-108Z" fill="#bca0cd" stroke="#bca0cd" stroke-width="1.51"/><path d="M1429,500L1472,548L1487,462Z" fill="#8f76b6" stroke="#8f76b6" stroke-width="1.51"/><path d="M1416,326L1407,443L1503,356Z" fill="#9685be" stroke="#9685be" stroke-width="1.51"/><path d="M1402,690L1394,737L1510,724Z" fill="#8b5eaa" stroke="#8b5eaa" stroke-width="1.51"/><path d="M1365,938L1400,1087L1483,948Z" fill="#884098" stroke="#884098" stroke-width="1.51"/><path d="M1361,-137L1396,3L1501,-52Z" fill="#baa1ce" stroke="#baa1ce" stroke-width="1.51"/><path d="M1400,1087L1365,1219L1499,1179Z" fill="#7a3284" stroke="#7a3284" stroke-width="1.51"/><path d="M1362,876L1365,938L1483,948Z" fill="#89499f" stroke="#89499f" stroke-width="1.51"/><path d="M1470,95L1387,108L1486,173Z" fill="#ac95c6" stroke="#ac95c6" stroke-width="1.51"/><path d="M1387,108L1380,175L1486,173Z" fill="#a995c6" stroke="#a995c6" stroke-width="1.51"/><path d="M1407,443L1429,500L1487,462Z" fill="#917bb9" stroke="#917bb9" stroke-width="1.51"/><path d="M1312,654L1402,690L1472,548Z" fill="#8c6bb1" stroke="#8c6bb1" stroke-width="1.51"/><path d="M1291,1196L1147,1234L1365,1219Z" fill="#733b81" stroke="#733b81" stroke-width="1.51"/><path d="M1380,175L1324,233L1416,326Z" fill="#a192c5" stroke="#a192c5" stroke-width="1.51"/><path d="M1396,3L1387,108L1470,95Z" fill="#b19aca" stroke="#b19aca" stroke-width="1.51"/><path d="M1429,500L1312,654L1472,548Z" fill="#8c73b4" stroke="#8c73b4" stroke-width="1.51"/><path d="M1361,-137L1315,-18L1396,3Z" fill="#baa5d0" stroke="#baa5d0" stroke-width="1.51"/><path d="M1324,233L1308,311L1416,326Z" fill="#9d91c4" stroke="#9d91c4" stroke-width="1.51"/><path d="M1308,311L1407,443L1416,326Z" fill="#978bc1" stroke="#978bc1" stroke-width="1.51"/><path d="M1407,443L1258,503L1429,500Z" fill="#907fba" stroke="#907fba" stroke-width="1.51"/><path d="M1258,503L1312,654L1429,500Z" fill="#8d79b8" stroke="#8d79b8" stroke-width="1.51"/><path d="M1294,736L1362,876L1394,737Z" fill="#8b5daa" stroke="#8b5daa" stroke-width="1.51"/><path d="M1291,1196L1365,1219L1400,1087Z" fill="#793785" stroke="#793785" stroke-width="1.51"/><path d="M1269,1114L1291,1196L1400,1087Z" fill="#7f3c8b" stroke="#7f3c8b" stroke-width="1.51"/><path d="M1365,938L1252,975L1400,1087Z" fill="#88469a" stroke="#88469a" stroke-width="1.51"/><path d="M1261,462L1258,503L1407,443Z" fill="#9184bd" stroke="#9184bd" stroke-width="1.51"/><path d="M1308,311L1261,462L1407,443Z" fill="#948ac0" stroke="#948ac0" stroke-width="1.51"/><path d="M1315,-18L1258,71L1387,108Z" fill="#b2a2ce" stroke="#b2a2ce" stroke-width="1.51"/><path d="M1315,-18L1387,108L1396,3Z" fill="#b4a0cd" stroke="#b4a0cd" stroke-width="1.51"/><path d="M1252,975L1269,1114L1400,1087Z" fill="#884296" stroke="#884296" stroke-width="1.51"/><path d="M1294,736L1394,737L1402,690Z" fill="#8c63ad" stroke="#8c63ad" stroke-width="1.51"/><path d="M1312,654L1294,736L1402,690Z" fill="#8c68af" stroke="#8c68af" stroke-width="1.51"/><path d="M1294,736L1268,866L1362,876Z" fill="#8b5ba9" stroke="#8b5ba9" stroke-width="1.51"/><path d="M1258,71L1380,175L1387,108Z" fill="#ac9ccb" stroke="#ac9ccb" stroke-width="1.51"/><path d="M1258,71L1324,233L1380,175Z" fill="#a89bca" stroke="#a89bca" stroke-width="1.51"/><path d="M1251,-135L1315,-18L1361,-137Z" fill="#bdaad3" stroke="#bdaad3" stroke-width="1.51"/><path d="M1362,876L1268,866L1365,938Z" fill="#8a51a4" stroke="#8a51a4" stroke-width="1.51"/><path d="M1268,866L1252,975L1365,938Z" fill="#8a51a3" stroke="#8a51a3" stroke-width="1.51"/><path d="M1258,71L1209,99L1324,233Z" fill="#aba1cd" stroke="#aba1cd" stroke-width="1.51"/><path d="M1044,1207L924,1216L1147,1234Z" fill="#754c89" stroke="#754c89" stroke-width="1.51"/><path d="M981,-158L1079,-99L1251,-135Z" fill="#bfbbdb" stroke="#bfbbdb" stroke-width="1.51"/><path d="M1252,975L1212,1017L1269,1114Z" fill="#894a9a" stroke="#894a9a" stroke-width="1.51"/><path d="M1222,838L1268,866L1294,736Z" fill="#8b60ab" stroke="#8b60ab" stroke-width="1.51"/><path d="M1200,797L1222,838L1294,736Z" fill="#8c64ad" stroke="#8c64ad" stroke-width="1.51"/><path d="M1205,427L1261,462L1308,311Z" fill="#948fc3" stroke="#948fc3" stroke-width="1.51"/><path d="M1258,503L1143,579L1312,654Z" fill="#8d7db9" stroke="#8d7db9" stroke-width="1.51"/><path d="M1143,579L1155,652L1312,654Z" fill="#8d7ab8" stroke="#8d7ab8" stroke-width="1.51"/><path d="M1251,-135L1199,-5L1315,-18Z" fill="#baacd4" stroke="#baacd4" stroke-width="1.51"/><path d="M1163,213L1308,311L1324,233Z" fill="#a099c8" stroke="#a099c8" stroke-width="1.51"/><path d="M1209,99L1163,213L1324,233Z" fill="#a6a0cc" stroke="#a6a0cc" stroke-width="1.51"/><path d="M1163,213L1142,279L1308,311Z" fill="#9e9dca" stroke="#9e9dca" stroke-width="1.51"/><path d="M1155,652L1294,736L1312,654Z" fill="#8c6fb3" stroke="#8c6fb3" stroke-width="1.51"/><path d="M1199,-5L1258,71L1315,-18Z" fill="#b6a9d1" stroke="#b6a9d1" stroke-width="1.51"/><path d="M1142,279L1205,427L1308,311Z" fill="#9897c7" stroke="#9897c7" stroke-width="1.51"/><path d="M1079,-99L1167,-92L1251,-135Z" fill="#beb5d8" stroke="#beb5d8" stroke-width="1.51"/><path d="M1167,-92L1199,-5L1251,-135Z" fill="#bbb1d6" stroke="#bbb1d6" stroke-width="1.51"/><path d="M1269,1114L1145,1123L1291,1196Z" fill="#7e428d" stroke="#7e428d" stroke-width="1.51"/><path d="M1155,652L1200,797L1294,736Z" fill="#8c6db1" stroke="#8c6db1" stroke-width="1.51"/><path d="M1145,1123L1147,1234L1291,1196Z" fill="#784388" stroke="#784388" stroke-width="1.51"/><path d="M536,1174L311,1240L712,1178Z" fill="#8a6c9b" stroke="#8a6c9b" stroke-width="1.51"/><path d="M1222,838L1096,887L1252,975Z" fill="#8b5ba9" stroke="#8b5ba9" stroke-width="1.51"/><path d="M1222,838L1252,975L1268,866Z" fill="#8a57a7" stroke="#8a57a7" stroke-width="1.51"/><path d="M1212,1017L1145,1123L1269,1114Z" fill="#874897" stroke="#874897" stroke-width="1.51"/><path d="M1199,-5L1209,99L1258,71Z" fill="#b2a9d1" stroke="#b2a9d1" stroke-width="1.51"/><path d="M1205,427L1258,503L1261,462Z" fill="#9189c0" stroke="#9189c0" stroke-width="1.51"/><path d="M1096,887L1212,1017L1252,975Z" fill="#8b55a3" stroke="#8b55a3" stroke-width="1.51"/><path d="M1205,427L1143,579L1258,503Z" fill="#8f88bf" stroke="#8f88bf" stroke-width="1.51"/><path d="M1094,513L1143,579L1205,427Z" fill="#8e8cc1" stroke="#8e8cc1" stroke-width="1.51"/><path d="M1155,652L1104,749L1200,797Z" fill="#8d71b3" stroke="#8d71b3" stroke-width="1.51"/><path d="M1142,279L1079,351L1205,427Z" fill="#979cca" stroke="#979cca" stroke-width="1.51"/><path d="M1104,452L1094,513L1205,427Z" fill="#9191c3" stroke="#9191c3" stroke-width="1.51"/><path d="M1105,188L1163,213L1209,99Z" fill="#a8a6cf" stroke="#a8a6cf" stroke-width="1.51"/><path d="M1094,109L1105,188L1209,99Z" fill="#abaad1" stroke="#abaad1" stroke-width="1.51"/><path d="M1199,-5L1094,109L1209,99Z" fill="#b1acd3" stroke="#b1acd3" stroke-width="1.51"/><path d="M1096,887L1075,1020L1212,1017Z" fill="#8b59a4" stroke="#8b59a4" stroke-width="1.51"/><path d="M1200,797L1096,887L1222,838Z" fill="#8c63ad" stroke="#8c63ad" stroke-width="1.51"/><path d="M1079,351L1104,452L1205,427Z" fill="#9497c7" stroke="#9497c7" stroke-width="1.51"/><path d="M1075,1020L1145,1123L1212,1017Z" fill="#8a509c" stroke="#8a509c" stroke-width="1.51"/><path d="M1167,-92L1082,-35L1199,-5Z" fill="#bab4d7" stroke="#bab4d7" stroke-width="1.51"/><path d="M1082,-35L1094,109L1199,-5Z" fill="#b5b2d6" stroke="#b5b2d6" stroke-width="1.51"/><path d="M1104,749L1096,887L1200,797Z" fill="#8c69b0" stroke="#8c69b0" stroke-width="1.51"/><path d="M225,-157L403,-108L732,-144Z" fill="#d5e3ef" stroke="#d5e3ef" stroke-width="1.51"/><path d="M1145,1123L1044,1207L1147,1234Z" fill="#79498b" stroke="#79498b" stroke-width="1.51"/><path d="M1143,579L1103,655L1155,652Z" fill="#8d7fba" stroke="#8d7fba" stroke-width="1.51"/><path d="M1103,655L1104,749L1155,652Z" fill="#8d79b7" stroke="#8d79b7" stroke-width="1.51"/><path d="M1105,188L1142,279L1163,213Z" fill="#a3a4ce" stroke="#a3a4ce" stroke-width="1.51"/><path d="M1079,-99L1082,-35L1167,-92Z" fill="#bcb8d9" stroke="#bcb8d9" stroke-width="1.51"/><path d="M1075,1020L1055,1117L1145,1123Z" fill="#89529a" stroke="#89529a" stroke-width="1.51"/><path d="M1055,1117L1044,1207L1145,1123Z" fill="#7f4e91" stroke="#7f4e91" stroke-width="1.51"/><path d="M732,-144L838,-124L981,-158Z" fill="#c3cee5" stroke="#c3cee5" stroke-width="1.51"/><path d="M1105,188L994,248L1142,279Z" fill="#a1a8cf" stroke="#a1a8cf" stroke-width="1.51"/><path d="M1094,513L1103,655L1143,579Z" fill="#8d86be" stroke="#8d86be" stroke-width="1.51"/><path d="M994,248L1079,351L1142,279Z" fill="#9ca5ce" stroke="#9ca5ce" stroke-width="1.51"/><path d="M925,549L986,655L1094,513Z" fill="#8c8fc2" stroke="#8c8fc2" stroke-width="1.51"/><path d="M1082,-35L991,-6L1094,109Z" fill="#b5b7d9" stroke="#b5b7d9" stroke-width="1.51"/><path d="M983,994L1075,1020L1096,887Z" fill="#8c60a7" stroke="#8c60a7" stroke-width="1.51"/><path d="M1094,513L986,655L1103,655Z" fill="#8d86be" stroke="#8d86be" stroke-width="1.51"/><path d="M957,430L1094,513L1104,452Z" fill="#9197c6" stroke="#9197c6" stroke-width="1.51"/><path d="M1079,351L957,430L1104,452Z" fill="#939dca" stroke="#939dca" stroke-width="1.51"/><path d="M962,848L1096,887L1104,749Z" fill="#8d6eb2" stroke="#8d6eb2" stroke-width="1.51"/><path d="M963,754L962,848L1104,749Z" fill="#8d76b6" stroke="#8d76b6" stroke-width="1.51"/><path d="M1103,655L986,655L1104,749Z" fill="#8d7db9" stroke="#8d7db9" stroke-width="1.51"/><path d="M986,655L963,754L1104,749Z" fill="#8d7db9" stroke="#8d7db9" stroke-width="1.51"/><path d="M1094,109L943,116L1105,188Z" fill="#aab0d5" stroke="#aab0d5" stroke-width="1.51"/><path d="M943,116L994,248L1105,188Z" fill="#a6b0d4" stroke="#a6b0d4" stroke-width="1.51"/><path d="M994,248L982,338L1079,351Z" fill="#9aa7cf" stroke="#9aa7cf" stroke-width="1.51"/><path d="M982,338L957,430L1079,351Z" fill="#95a4ce" stroke="#95a4ce" stroke-width="1.51"/><path d="M991,-6L943,116L1094,109Z" fill="#b0b8d8" stroke="#b0b8d8" stroke-width="1.51"/><path d="M962,848L983,994L1096,887Z" fill="#8c68ae" stroke="#8c68ae" stroke-width="1.51"/><path d="M957,430L925,549L1094,513Z" fill="#8e98c7" stroke="#8e98c7" stroke-width="1.51"/><path d="M949,1080L1055,1117L1075,1020Z" fill="#8b579e" stroke="#8b579e" stroke-width="1.51"/><path d="M983,994L949,1080L1075,1020Z" fill="#8b5ea3" stroke="#8b5ea3" stroke-width="1.51"/><path d="M1079,-99L991,-6L1082,-35Z" fill="#b9bbdb" stroke="#b9bbdb" stroke-width="1.51"/><path d="M981,-158L991,-6L1079,-99Z" fill="#bcc0dd" stroke="#bcc0dd" stroke-width="1.51"/><path d="M949,1080L924,1216L1044,1207Z" fill="#7d5592" stroke="#7d5592" stroke-width="1.51"/><path d="M949,1080L1044,1207L1055,1117Z" fill="#825496" stroke="#825496" stroke-width="1.51"/><path d="M607,1167L536,1174L712,1178Z" fill="#896a9d" stroke="#896a9d" stroke-width="1.51"/><path d="M884,1113L875,1165L924,1216Z" fill="#805b95" stroke="#805b95" stroke-width="1.51"/><path d="M884,1113L924,1216L949,1080Z" fill="#845b99" stroke="#845b99" stroke-width="1.51"/><path d="M842,858L872,1006L962,848Z" fill="#8f71b3" stroke="#8f71b3" stroke-width="1.51"/><path d="M838,-124L888,-10L981,-158Z" fill="#bfc9e1" stroke="#bfc9e1" stroke-width="1.51"/><path d="M839,224L824,317L982,338Z" fill="#9eb2d5" stroke="#9eb2d5" stroke-width="1.51"/><path d="M962,848L872,1006L983,994Z" fill="#8d6aad" stroke="#8d6aad" stroke-width="1.51"/><path d="M883,720L963,754L986,655Z" fill="#8d83bc" stroke="#8d83bc" stroke-width="1.51"/><path d="M981,-158L888,-10L991,-6Z" fill="#bac3de" stroke="#bac3de" stroke-width="1.51"/><path d="M888,-10L943,116L991,-6Z" fill="#b4c0dc" stroke="#b4c0dc" stroke-width="1.51"/><path d="M839,224L982,338L994,248Z" fill="#9eb0d3" stroke="#9eb0d3" stroke-width="1.51"/><path d="M943,116L839,224L994,248Z" fill="#a6b6d6" stroke="#a6b6d6" stroke-width="1.51"/><path d="M824,317L957,430L982,338Z" fill="#96abd1" stroke="#96abd1" stroke-width="1.51"/><path d="M872,1006L949,1080L983,994Z" fill="#8d62a6" stroke="#8d62a6" stroke-width="1.51"/><path d="M925,549L820,610L986,655Z" fill="#8e92c3" stroke="#8e92c3" stroke-width="1.51"/><path d="M820,610L883,720L986,655Z" fill="#8f8cc1" stroke="#8f8cc1" stroke-width="1.51"/><path d="M859,116L839,224L943,116Z" fill="#abbbda" stroke="#abbbda" stroke-width="1.51"/><path d="M888,-10L859,116L943,116Z" fill="#b2bfdc" stroke="#b2bfdc" stroke-width="1.51"/><path d="M848,537L925,549L957,430Z" fill="#909dc9" stroke="#909dc9" stroke-width="1.51"/><path d="M824,435L848,537L957,430Z" fill="#92a3cd" stroke="#92a3cd" stroke-width="1.51"/><path d="M824,317L824,435L957,430Z" fill="#97abd1" stroke="#97abd1" stroke-width="1.51"/><path d="M842,858L962,848L963,754Z" fill="#8e78b7" stroke="#8e78b7" stroke-width="1.51"/><path d="M883,720L842,858L963,754Z" fill="#8f7eba" stroke="#8f7eba" stroke-width="1.51"/><path d="M872,1006L884,1113L949,1080Z" fill="#8e61a3" stroke="#8e61a3" stroke-width="1.51"/><path d="M875,1165L712,1178L924,1216Z" fill="#7f5d94" stroke="#7f5d94" stroke-width="1.51"/><path d="M848,537L820,610L925,549Z" fill="#8f99c8" stroke="#8f99c8" stroke-width="1.51"/><path d="M403,-108L546,-85L732,-144Z" fill="#cdddec" stroke="#cdddec" stroke-width="1.51"/><path d="M842,858L741,893L872,1006Z" fill="#9175b4" stroke="#9175b4" stroke-width="1.51"/><path d="M747,740L842,858L883,720Z" fill="#9284bd" stroke="#9284bd" stroke-width="1.51"/><path d="M820,610L747,740L883,720Z" fill="#918ec2" stroke="#918ec2" stroke-width="1.51"/><path d="M872,1006L746,1131L884,1113Z" fill="#8f64a4" stroke="#8f64a4" stroke-width="1.51"/><path d="M771,-12L859,116L888,-10Z" fill="#b8c6e0" stroke="#b8c6e0" stroke-width="1.51"/><path d="M838,-124L771,-12L888,-10Z" fill="#becbe3" stroke="#becbe3" stroke-width="1.51"/><path d="M746,1131L875,1165L884,1113Z" fill="#87609c" stroke="#87609c" stroke-width="1.51"/><path d="M746,1131L712,1178L875,1165Z" fill="#85639a" stroke="#85639a" stroke-width="1.51"/><path d="M700,964L746,1131L872,1006Z" fill="#936dab" stroke="#936dab" stroke-width="1.51"/><path d="M741,893L700,964L872,1006Z" fill="#9374b2" stroke="#9374b2" stroke-width="1.51"/><path d="M723,141L839,224L859,116Z" fill="#adc0dd" stroke="#adc0dd" stroke-width="1.51"/><path d="M749,610L747,740L820,610Z" fill="#9395c6" stroke="#9395c6" stroke-width="1.51"/><path d="M767,323L824,435L824,317Z" fill="#9bb3d5" stroke="#9bb3d5" stroke-width="1.51"/><path d="M723,141L730,205L839,224Z" fill="#abc1dd" stroke="#abc1dd" stroke-width="1.51"/><path d="M824,435L752,551L848,537Z" fill="#93a3cd" stroke="#93a3cd" stroke-width="1.51"/><path d="M771,-12L723,141L859,116Z" fill="#b5c7e0" stroke="#b5c7e0" stroke-width="1.51"/><path d="M741,445L752,551L824,435Z" fill="#95a9d0" stroke="#95a9d0" stroke-width="1.51"/><path d="M732,-144L771,-12L838,-124Z" fill="#c2d1e5" stroke="#c2d1e5" stroke-width="1.51"/><path d="M767,323L824,317L839,224Z" fill="#a1b7d7" stroke="#a1b7d7" stroke-width="1.51"/><path d="M747,740L741,893L842,858Z" fill="#9381bb" stroke="#9381bb" stroke-width="1.51"/><path d="M752,551L820,610L848,537Z" fill="#919dca" stroke="#919dca" stroke-width="1.51"/><path d="M767,323L741,445L824,435Z" fill="#99b0d4" stroke="#99b0d4" stroke-width="1.51"/><path d="M730,205L767,323L839,224Z" fill="#a5bcda" stroke="#a5bcda" stroke-width="1.51"/><path d="M546,-85L661,-103L732,-144Z" fill="#c8daea" stroke="#c8daea" stroke-width="1.51"/><path d="M752,551L749,610L820,610Z" fill="#939cc9" stroke="#939cc9" stroke-width="1.51"/><path d="M652,11L636,88L723,141Z" fill="#b8cee4" stroke="#b8cee4" stroke-width="1.51"/><path d="M665,745L638,861L741,893Z" fill="#9687be" stroke="#9687be" stroke-width="1.51"/><path d="M620,281L606,450L741,445Z" fill="#9eb9d9" stroke="#9eb9d9" stroke-width="1.51"/><path d="M700,964L649,1108L746,1131Z" fill="#956eaa" stroke="#956eaa" stroke-width="1.51"/><path d="M665,745L741,893L747,740Z" fill="#9588c0" stroke="#9588c0" stroke-width="1.51"/><path d="M653,681L747,740L749,610Z" fill="#9595c6" stroke="#9595c6" stroke-width="1.51"/><path d="M741,445L665,527L752,551Z" fill="#95a9d0" stroke="#95a9d0" stroke-width="1.51"/><path d="M620,281L741,445L767,323Z" fill="#9ebad9" stroke="#9ebad9" stroke-width="1.51"/><path d="M730,205L620,281L767,323Z" fill="#a6bfdc" stroke="#a6bfdc" stroke-width="1.51"/><path d="M652,11L723,141L771,-12Z" fill="#bacee4" stroke="#bacee4" stroke-width="1.51"/><path d="M732,-144L661,-103L771,-12Z" fill="#c4d4e8" stroke="#c4d4e8" stroke-width="1.51"/><path d="M661,-103L652,11L771,-12Z" fill="#c1d4e7" stroke="#c1d4e7" stroke-width="1.51"/><path d="M620,1008L649,1108L700,964Z" fill="#9774af" stroke="#9774af" stroke-width="1.51"/><path d="M653,681L665,745L747,740Z" fill="#9692c5" stroke="#9692c5" stroke-width="1.51"/><path d="M665,527L749,610L752,551Z" fill="#94a3cc" stroke="#94a3cc" stroke-width="1.51"/><path d="M665,527L653,681L749,610Z" fill="#95a0cb" stroke="#95a0cb" stroke-width="1.51"/><path d="M649,1108L712,1178L746,1131Z" fill="#8b69a0" stroke="#8b69a0" stroke-width="1.51"/><path d="M638,861L700,964L741,893Z" fill="#967eb9" stroke="#967eb9" stroke-width="1.51"/><path d="M606,450L665,527L741,445Z" fill="#99b0d3" stroke="#99b0d3" stroke-width="1.51"/><path d="M723,141L605,188L730,205Z" fill="#afc7e0" stroke="#afc7e0" stroke-width="1.51"/><path d="M605,188L620,281L730,205Z" fill="#acc6df" stroke="#acc6df" stroke-width="1.51"/><path d="M636,88L605,188L723,141Z" fill="#b4cbe2" stroke="#b4cbe2" stroke-width="1.51"/><path d="M649,1108L607,1167L712,1178Z" fill="#8b6a9f" stroke="#8b6a9f" stroke-width="1.51"/><path d="M-154,-141L119,-131L225,-157Z" fill="#ebf3f8" stroke="#ebf3f8" stroke-width="1.51"/><path d="M638,861L620,1008L700,964Z" fill="#987cb7" stroke="#987cb7" stroke-width="1.51"/><path d="M220,1213L-48,1221L311,1240Z" fill="#99779f" stroke="#99779f" stroke-width="1.51"/><path d="M504,355L606,450L620,281Z" fill="#a4bfdc" stroke="#a4bfdc" stroke-width="1.51"/><path d="M524,901L620,1008L638,861Z" fill="#9b80ba" stroke="#9b80ba" stroke-width="1.51"/><path d="M546,-85L652,11L661,-103Z" fill="#c6d9e9" stroke="#c6d9e9" stroke-width="1.51"/><path d="M653,681L525,749L665,745Z" fill="#9a95c6" stroke="#9a95c6" stroke-width="1.51"/><path d="M525,749L638,861L665,745Z" fill="#9a8fc3" stroke="#9a8fc3" stroke-width="1.51"/><path d="M606,450L549,519L665,527Z" fill="#9bb0d4" stroke="#9bb0d4" stroke-width="1.51"/><path d="M522,646L653,681L665,527Z" fill="#9aa2cc" stroke="#9aa2cc" stroke-width="1.51"/><path d="M549,519L522,646L665,527Z" fill="#9ba9d0" stroke="#9ba9d0" stroke-width="1.51"/><path d="M620,1008L534,1081L649,1108Z" fill="#9a73ad" stroke="#9a73ad" stroke-width="1.51"/><path d="M504,355L536,444L606,450Z" fill="#a3bbda" stroke="#a3bbda" stroke-width="1.51"/><path d="M528,27L554,92L636,88Z" fill="#bfd3e6" stroke="#bfd3e6" stroke-width="1.51"/><path d="M554,92L605,188L636,88Z" fill="#b8cee4" stroke="#b8cee4" stroke-width="1.51"/><path d="M528,27L636,88L652,11Z" fill="#c0d4e7" stroke="#c0d4e7" stroke-width="1.51"/><path d="M546,-85L528,27L652,11Z" fill="#c6d9e9" stroke="#c6d9e9" stroke-width="1.51"/><path d="M522,646L525,749L653,681Z" fill="#9c9bc9" stroke="#9c9bc9" stroke-width="1.51"/><path d="M435,1162L311,1240L536,1174Z" fill="#906f9e" stroke="#906f9e" stroke-width="1.51"/><path d="M524,901L511,976L620,1008Z" fill="#9d7eb8" stroke="#9d7eb8" stroke-width="1.51"/><path d="M534,1081L607,1167L649,1108Z" fill="#936fa5" stroke="#936fa5" stroke-width="1.51"/><path d="M525,749L524,901L638,861Z" fill="#9d8bc1" stroke="#9d8bc1" stroke-width="1.51"/><path d="M534,1081L536,1174L607,1167Z" fill="#926fa3" stroke="#926fa3" stroke-width="1.51"/><path d="M605,188L506,167L620,281Z" fill="#b2c9e1" stroke="#b2c9e1" stroke-width="1.51"/><path d="M506,167L448,300L620,281Z" fill="#b1c9e1" stroke="#b1c9e1" stroke-width="1.51"/><path d="M448,300L504,355L620,281Z" fill="#abc5df" stroke="#abc5df" stroke-width="1.51"/><path d="M511,976L534,1081L620,1008Z" fill="#9d79b2" stroke="#9d79b2" stroke-width="1.51"/><path d="M554,92L506,167L605,188Z" fill="#b8cee4" stroke="#b8cee4" stroke-width="1.51"/><path d="M536,444L549,519L606,450Z" fill="#9fb5d6" stroke="#9fb5d6" stroke-width="1.51"/><path d="M439,854L524,901L525,749Z" fill="#a08ec2" stroke="#a08ec2" stroke-width="1.51"/><path d="M511,976L448,1014L534,1081Z" fill="#9f7bb3" stroke="#9f7bb3" stroke-width="1.51"/><path d="M534,1081L435,1162L536,1174Z" fill="#9570a4" stroke="#9570a4" stroke-width="1.51"/><path d="M429,-33L528,27L546,-85Z" fill="#cbdceb" stroke="#cbdceb" stroke-width="1.51"/><path d="M387,568L522,646L549,519Z" fill="#a0acd2" stroke="#a0acd2" stroke-width="1.51"/><path d="M528,27L506,167L554,92Z" fill="#bfd3e7" stroke="#bfd3e7" stroke-width="1.51"/><path d="M381,71L506,167L528,27Z" fill="#c3d6e7" stroke="#c3d6e7" stroke-width="1.51"/><path d="M536,444L387,568L549,519Z" fill="#a1b3d5" stroke="#a1b3d5" stroke-width="1.51"/><path d="M522,646L415,676L525,749Z" fill="#a09ecb" stroke="#a09ecb" stroke-width="1.51"/><path d="M385,410L387,568L536,444Z" fill="#a6b9d8" stroke="#a6b9d8" stroke-width="1.51"/><path d="M403,-108L429,-33L546,-85Z" fill="#d0e0ed" stroke="#d0e0ed" stroke-width="1.51"/><path d="M504,355L385,410L536,444Z" fill="#a8bfdc" stroke="#a8bfdc" stroke-width="1.51"/><path d="M448,1014L435,1162L534,1081Z" fill="#9f76ac" stroke="#9f76ac" stroke-width="1.51"/><path d="M398,176L448,300L506,167Z" fill="#b8cee3" stroke="#b8cee3" stroke-width="1.51"/><path d="M387,568L415,676L522,646Z" fill="#a3a7cf" stroke="#a3a7cf" stroke-width="1.51"/><path d="M439,854L511,976L524,901Z" fill="#a185be" stroke="#a185be" stroke-width="1.51"/><path d="M372,786L439,854L525,749Z" fill="#a394c5" stroke="#a394c5" stroke-width="1.51"/><path d="M429,-33L381,71L528,27Z" fill="#cbdbeb" stroke="#cbdbeb" stroke-width="1.51"/><path d="M381,71L398,176L506,167Z" fill="#c1d4e7" stroke="#c1d4e7" stroke-width="1.51"/><path d="M415,676L372,786L525,749Z" fill="#a49ac9" stroke="#a49ac9" stroke-width="1.51"/><path d="M439,854L448,1014L511,976Z" fill="#a283bb" stroke="#a283bb" stroke-width="1.51"/><path d="M371,1069L435,1162L448,1014Z" fill="#a278ae" stroke="#a278ae" stroke-width="1.51"/><path d="M448,300L385,410L504,355Z" fill="#acc5df" stroke="#acc5df" stroke-width="1.51"/><path d="M225,-157L284,-107L403,-108Z" fill="#dce8f2" stroke="#dce8f2" stroke-width="1.51"/><path d="M371,1069L339,1101L435,1162Z" fill="#a077ab" stroke="#a077ab" stroke-width="1.51"/><path d="M281,996L371,1069L448,1014Z" fill="#a67fb5" stroke="#a67fb5" stroke-width="1.51"/><path d="M336,891L281,996L448,1014Z" fill="#a885bb" stroke="#a885bb" stroke-width="1.51"/><path d="M439,854L336,891L448,1014Z" fill="#a588bf" stroke="#a588bf" stroke-width="1.51"/><path d="M315,346L385,410L448,300Z" fill="#b0c8e1" stroke="#b0c8e1" stroke-width="1.51"/><path d="M329,227L315,346L448,300Z" fill="#b6cde3" stroke="#b6cde3" stroke-width="1.51"/><path d="M398,176L329,227L448,300Z" fill="#bacfe5" stroke="#bacfe5" stroke-width="1.51"/><path d="M327,-29L381,71L429,-33Z" fill="#d0dfed" stroke="#d0dfed" stroke-width="1.51"/><path d="M372,786L336,891L439,854Z" fill="#a790c4" stroke="#a790c4" stroke-width="1.51"/><path d="M339,1101L311,1240L435,1162Z" fill="#9874a2" stroke="#9874a2" stroke-width="1.51"/><path d="M385,410L333,397L387,568Z" fill="#abbddb" stroke="#abbddb" stroke-width="1.51"/><path d="M387,568L289,623L415,676Z" fill="#a7abd1" stroke="#a7abd1" stroke-width="1.51"/><path d="M403,-108L327,-29L429,-33Z" fill="#d4e2ee" stroke="#d4e2ee" stroke-width="1.51"/><path d="M315,346L333,397L385,410Z" fill="#b0c6df" stroke="#b0c6df" stroke-width="1.51"/><path d="M333,397L273,561L387,568Z" fill="#aabad9" stroke="#aabad9" stroke-width="1.51"/><path d="M381,71L313,117L398,176Z" fill="#c6d8e9" stroke="#c6d8e9" stroke-width="1.51"/><path d="M264,731L372,786L415,676Z" fill="#a99ecc" stroke="#a99ecc" stroke-width="1.51"/><path d="M289,623L264,731L415,676Z" fill="#aaa6cf" stroke="#aaa6cf" stroke-width="1.51"/><path d="M284,-107L327,-29L403,-108Z" fill="#d8e5f0" stroke="#d8e5f0" stroke-width="1.51"/><path d="M313,117L329,227L398,176Z" fill="#c2d5e8" stroke="#c2d5e8" stroke-width="1.51"/><path d="M273,561L289,623L387,568Z" fill="#aab2d5" stroke="#aab2d5" stroke-width="1.51"/><path d="M327,-29L313,117L381,71Z" fill="#cedeec" stroke="#cedeec" stroke-width="1.51"/><path d="M281,996L339,1101L371,1069Z" fill="#a87eb4" stroke="#a87eb4" stroke-width="1.51"/><path d="M264,731L336,891L372,786Z" fill="#aa97c8" stroke="#aa97c8" stroke-width="1.51"/><path d="M166,773L182,896L264,731Z" fill="#b09dcb" stroke="#b09dcb" stroke-width="1.51"/><path d="M219,129L313,117L327,-29Z" fill="#cfdeed" stroke="#cfdeed" stroke-width="1.51"/><path d="M180,-42L219,129L327,-29Z" fill="#d6e4f0" stroke="#d6e4f0" stroke-width="1.51"/><path d="M313,117L219,129L329,227Z" fill="#c7d8e9" stroke="#c7d8e9" stroke-width="1.51"/><path d="M153,331L315,346L329,227Z" fill="#bbd0e5" stroke="#bbd0e5" stroke-width="1.51"/><path d="M164,460L273,561L333,397Z" fill="#b0c1dd" stroke="#b0c1dd" stroke-width="1.51"/><path d="M182,896L281,996L336,891Z" fill="#ad8cc1" stroke="#ad8cc1" stroke-width="1.51"/><path d="M264,731L182,896L336,891Z" fill="#ad95c7" stroke="#ad95c7" stroke-width="1.51"/><path d="M281,996L162,1099L339,1101Z" fill="#ac7fb4" stroke="#ac7fb4" stroke-width="1.51"/><path d="M162,1099L220,1213L339,1101Z" fill="#a37baa" stroke="#a37baa" stroke-width="1.51"/><path d="M220,1213L311,1240L339,1101Z" fill="#9975a2" stroke="#9975a2" stroke-width="1.51"/><path d="M158,185L153,331L329,227Z" fill="#c3d6e8" stroke="#c3d6e8" stroke-width="1.51"/><path d="M315,346L164,460L333,397Z" fill="#b3c8e1" stroke="#b3c8e1" stroke-width="1.51"/><path d="M164,460L219,561L273,561Z" fill="#b0bcda" stroke="#b0bcda" stroke-width="1.51"/><path d="M219,129L158,185L329,227Z" fill="#c8d9e9" stroke="#c8d9e9" stroke-width="1.51"/><path d="M284,-107L180,-42L327,-29Z" fill="#dbe7f2" stroke="#dbe7f2" stroke-width="1.51"/><path d="M228,635L264,731L289,623Z" fill="#adabd2" stroke="#adabd2" stroke-width="1.51"/><path d="M153,331L164,460L315,346Z" fill="#b8cde3" stroke="#b8cde3" stroke-width="1.51"/><path d="M193,991L162,1099L281,996Z" fill="#af85b9" stroke="#af85b9" stroke-width="1.51"/><path d="M182,896L193,991L281,996Z" fill="#af8bbf" stroke="#af8bbf" stroke-width="1.51"/><path d="M-154,-141L-63,-109L119,-131Z" fill="#edf5f9" stroke="#edf5f9" stroke-width="1.51"/><path d="M219,561L228,635L273,561Z" fill="#aeb4d7" stroke="#aeb4d7" stroke-width="1.51"/><path d="M273,561L228,635L289,623Z" fill="#adb1d5" stroke="#adb1d5" stroke-width="1.51"/><path d="M225,-157L180,-42L284,-107Z" fill="#dfeaf3" stroke="#dfeaf3" stroke-width="1.51"/><path d="M228,635L166,773L264,731Z" fill="#b0a5d0" stroke="#b0a5d0" stroke-width="1.51"/><path d="M82,-4L52,125L219,129Z" fill="#d7e5f0" stroke="#d7e5f0" stroke-width="1.51"/><path d="M180,-42L82,-4L219,129Z" fill="#dae7f2" stroke="#dae7f2" stroke-width="1.51"/><path d="M39,1157L-48,1221L220,1213Z" fill="#a27ca5" stroke="#a27ca5" stroke-width="1.51"/><path d="M119,-131L180,-42L225,-157Z" fill="#e3edf5" stroke="#e3edf5" stroke-width="1.51"/><path d="M219,561L97,638L228,635Z" fill="#b2b3d7" stroke="#b2b3d7" stroke-width="1.51"/><path d="M97,638L166,773L228,635Z" fill="#b2acd3" stroke="#b2acd3" stroke-width="1.51"/><path d="M84,226L153,331L158,185Z" fill="#c8daea" stroke="#c8daea" stroke-width="1.51"/><path d="M153,331L108,352L164,460Z" fill="#bcd0e5" stroke="#bcd0e5" stroke-width="1.51"/><path d="M52,125L158,185L219,129Z" fill="#d0e0ed" stroke="#d0e0ed" stroke-width="1.51"/><path d="M164,460L68,510L219,561Z" fill="#b5c1dd" stroke="#b5c1dd" stroke-width="1.51"/><path d="M162,1099L39,1157L220,1213Z" fill="#a57daa" stroke="#a57daa" stroke-width="1.51"/><path d="M68,510L97,638L219,561Z" fill="#b4bbda" stroke="#b4bbda" stroke-width="1.51"/><path d="M108,352L108,441L164,460Z" fill="#bacce3" stroke="#bacce3" stroke-width="1.51"/><path d="M97,638L49,737L166,773Z" fill="#b6aad2" stroke="#b6aad2" stroke-width="1.51"/><path d="M166,773L47,861L182,896Z" fill="#b59bca" stroke="#b59bca" stroke-width="1.51"/><path d="M182,896L84,987L193,991Z" fill="#b38ec1" stroke="#b38ec1" stroke-width="1.51"/><path d="M84,987L162,1099L193,991Z" fill="#b288ba" stroke="#b288ba" stroke-width="1.51"/><path d="M84,987L58,1086L162,1099Z" fill="#b486b8" stroke="#b486b8" stroke-width="1.51"/><path d="M119,-131L82,-4L180,-42Z" fill="#e2edf4" stroke="#e2edf4" stroke-width="1.51"/><path d="M47,861L84,987L182,896Z" fill="#b694c6" stroke="#b694c6" stroke-width="1.51"/><path d="M84,226L108,352L153,331Z" fill="#c4d6e9" stroke="#c4d6e9" stroke-width="1.51"/><path d="M58,1086L39,1157L162,1099Z" fill="#af82b1" stroke="#af82b1" stroke-width="1.51"/><path d="M108,441L68,510L164,460Z" fill="#b9c7e0" stroke="#b9c7e0" stroke-width="1.51"/><path d="M49,737L47,861L166,773Z" fill="#b7a2ce" stroke="#b7a2ce" stroke-width="1.51"/><path d="M52,125L84,226L158,185Z" fill="#d0e0ed" stroke="#d0e0ed" stroke-width="1.51"/><path d="M4,71L52,125L82,-4Z" fill="#dde9f2" stroke="#dde9f2" stroke-width="1.51"/><path d="M68,510L2,573L97,638Z" fill="#b8bddb" stroke="#b8bddb" stroke-width="1.51"/><path d="M-31,346L108,441L108,352Z" fill="#c0d3e7" stroke="#c0d3e7" stroke-width="1.51"/><path d="M84,226L-31,346L108,352Z" fill="#c6d8ea" stroke="#c6d8ea" stroke-width="1.51"/><path d="M-49,-41L82,-4L119,-131Z" fill="#e6f0f6" stroke="#e6f0f6" stroke-width="1.51"/><path d="M-63,-109L-49,-41L119,-131Z" fill="#eaf3f8" stroke="#eaf3f8" stroke-width="1.51"/><path d="M-63,433L68,510L108,441Z" fill="#bccae2" stroke="#bccae2" stroke-width="1.51"/><path d="M-31,346L-63,433L108,441Z" fill="#c1d1e6" stroke="#c1d1e6" stroke-width="1.51"/><path d="M-40,224L-31,346L84,226Z" fill="#ccdceb" stroke="#ccdceb" stroke-width="1.51"/><path d="M47,861L-52,902L84,987Z" fill="#b896c7" stroke="#b896c7" stroke-width="1.51"/><path d="M-67,643L49,737L97,638Z" fill="#b9b2d6" stroke="#b9b2d6" stroke-width="1.51"/><path d="M2,573L-67,643L97,638Z" fill="#bab9da" stroke="#bab9da" stroke-width="1.51"/><path d="M-45,760L47,861L49,737Z" fill="#baa4cf" stroke="#baa4cf" stroke-width="1.51"/><path d="M52,125L-40,224L84,226Z" fill="#d1e0ed" stroke="#d1e0ed" stroke-width="1.51"/><path d="M-52,902L-62,966L84,987Z" fill="#ba94c5" stroke="#ba94c5" stroke-width="1.51"/><path d="M-45,1054L58,1086L84,987Z" fill="#b88abb" stroke="#b88abb" stroke-width="1.51"/><path d="M-62,966L-45,1054L84,987Z" fill="#b98fbf" stroke="#b98fbf" stroke-width="1.51"/><path d="M-49,-41L4,71L82,-4Z" fill="#e3edf5" stroke="#e3edf5" stroke-width="1.51"/><path d="M-63,433L2,573L68,510Z" fill="#bcc6e0" stroke="#bcc6e0" stroke-width="1.51"/><path d="M-67,643L-45,760L49,737Z" fill="#bbadd5" stroke="#bbadd5" stroke-width="1.51"/><path d="M-45,1054L39,1157L58,1086Z" fill="#b485b5" stroke="#b485b5" stroke-width="1.51"/><path d="M-45,760L-52,902L47,861Z" fill="#bb9fcd" stroke="#bb9fcd" stroke-width="1.51"/><path d="M4,71L-40,224L52,125Z" fill="#d7e5f0" stroke="#d7e5f0" stroke-width="1.51"/><path d="M-125,1122L-48,1221L-45,1054Z" fill="#b185b1" stroke="#b185b1" stroke-width="1.51"/><path d="M-45,1054L-48,1221L39,1157Z" fill="#ae83ae" stroke="#ae83ae" stroke-width="1.51"/><path d="M-63,433L-110,571L2,573Z" fill="#bdc5e0" stroke="#bdc5e0" stroke-width="1.51"/><path d="M-49,-41L-112,4L4,71Z" fill="#e5eff6" stroke="#e5eff6" stroke-width="1.51"/><path d="M-145,101L-40,224L4,71Z" fill="#dae7f1" stroke="#dae7f1" stroke-width="1.51"/><path d="M-112,4L-145,101L4,71Z" fill="#e2edf5" stroke="#e2edf5" stroke-width="1.51"/><path d="M-110,571L-67,643L2,573Z" fill="#bcbddc" stroke="#bcbddc" stroke-width="1.51"/><path d="M-67,643L-148,750L-45,760Z" fill="#bdafd5" stroke="#bdafd5" stroke-width="1.51"/><path d="M-140,904L-52,902L-45,760Z" fill="#bda0cd" stroke="#bda0cd" stroke-width="1.51"/><path d="M-148,750L-140,904L-45,760Z" fill="#bea6d0" stroke="#bea6d0" stroke-width="1.51"/><path d="M-149,203L-133,342L-40,224Z" fill="#d1e0ed" stroke="#d1e0ed" stroke-width="1.51"/><path d="M-145,101L-149,203L-40,224Z" fill="#d8e5f0" stroke="#d8e5f0" stroke-width="1.51"/><path d="M-101,415L-63,433L-31,346Z" fill="#c4d4e7" stroke="#c4d4e7" stroke-width="1.51"/><path d="M-133,342L-101,415L-31,346Z" fill="#c6d8e9" stroke="#c6d8e9" stroke-width="1.51"/><path d="M-40,224L-133,342L-31,346Z" fill="#cbdceb" stroke="#cbdceb" stroke-width="1.51"/><path d="M-101,415L-110,571L-63,433Z" fill="#c1cce3" stroke="#c1cce3" stroke-width="1.51"/><path d="M-125,1122L-173,1200L-48,1221Z" fill="#ab82aa" stroke="#ab82aa" stroke-width="1.51"/><path d="M-62,966L-132,950L-45,1054Z" fill="#bc92c2" stroke="#bc92c2" stroke-width="1.51"/><path d="M-132,950L-62,966L-52,902Z" fill="#bd97c7" stroke="#bd97c7" stroke-width="1.51"/><path d="M-132,950L-125,1122L-45,1054Z" fill="#bc8dbd" stroke="#bc8dbd" stroke-width="1.51"/><path d="M-63,-109L-112,4L-49,-41Z" fill="#eaf3f8" stroke="#eaf3f8" stroke-width="1.51"/><path d="M-146,628L-148,750L-67,643Z" fill="#bfb5d8" stroke="#bfb5d8" stroke-width="1.51"/><path d="M-140,904L-132,950L-52,902Z" fill="#be99c9" stroke="#be99c9" stroke-width="1.51"/><path d="M-110,571L-146,628L-67,643Z" fill="#bebcdb" stroke="#bebcdb" stroke-width="1.51"/><path d="M-154,-141L-112,4L-63,-109Z" fill="#eef5f9" stroke="#eef5f9" stroke-width="1.51"/><path d="M-146,628L-110,571L-101,415Z" fill="#bfc6e0" stroke="#bfc6e0" stroke-width="1.51"/><path d="M-133,342L-146,628L-101,415Z" fill="#c3cfe5" stroke="#c3cfe5" stroke-width="1.51"/><path d="M-132,950L-173,1200L-125,1122Z" fill="#bb8ab8" stroke="#bb8ab8" stroke-width="1.51"/><path d="M-154,-141L-145,101L-112,4Z" fill="#eaf3f8" stroke="#eaf3f8" stroke-width="1.51"/><path d="M-149,203L-146,628L-133,342Z" fill="#c7d7e9" stroke="#c7d7e9" stroke-width="1.51"/><path d="M-140,904L-173,1200L-132,950Z" fill="#be90c1" stroke="#be90c1" stroke-width="1.51"/><path d="M-148,750L-173,1200L-140,904Z" fill="#bf97c7" stroke="#bf97c7" stroke-width="1.51"/><path d="M-149,203L-173,1200L-146,628Z" fill="#c1b6d9" stroke="#c1b6d9" stroke-width="1.51"/><path d="M-154,-141L-149,203L-145,101Z" fill="#e5eff6" stroke="#e5eff6" stroke-width="1.51"/><path d="M-173,1200L-148,750L-146,628Z" fill="#c0a1ce" stroke="#c0a1ce" stroke-width="1.51"/><path d="M-154,-141L-173,1200L-149,203Z" fill="#c6d4e7" stroke="#c6d4e7" stroke-width="1.51"/></svg>